<?xml version="1.0" encoding="UTF-8"?>
<svg xmlns="http://www.w3.org/2000/svg" xmlns:xlink="http://www.w3.org/1999/xlink" viewBox="0 0 1080 728.89">
  <defs>
    <style>
      .cls-1 {
        fill: #27fe89;
      }

      .cls-1, .cls-2, .cls-3, .cls-4, .cls-5, .cls-6, .cls-7, .cls-8, .cls-9, .cls-10, .cls-11, .cls-12, .cls-13, .cls-14, .cls-15, .cls-16, .cls-17, .cls-18, .cls-19, .cls-20, .cls-21, .cls-22, .cls-23, .cls-24, .cls-25, .cls-26, .cls-27, .cls-28, .cls-29, .cls-30, .cls-31, .cls-32, .cls-33, .cls-34, .cls-35 {
        stroke-width: 0px;
      }

      .cls-2 {
        fill: url(#linear-gradient-12);
      }

      .cls-3 {
        fill: #e1ffec;
      }

      .cls-4 {
        fill: #d0fce1;
      }

      .cls-5 {
        fill: url(#linear-gradient-2);
      }

      .cls-5, .cls-8 {
        opacity: .5;
      }

      .cls-6 {
        fill: url(#linear-gradient-6);
      }

      .cls-7 {
        fill: #2d77e2;
      }

      .cls-8 {
        fill: url(#linear-gradient);
      }

      .cls-36 {
        isolation: isolate;
      }

      .cls-9 {
        fill: url(#linear-gradient-11);
      }

      .cls-10 {
        fill: url(#linear-gradient-5);
      }

      .cls-11 {
        fill: #e67052;
      }

      .cls-12 {
        fill: #25b763;
      }

      .cls-13 {
        fill: url(#linear-gradient-13);
      }

      .cls-14 {
        fill: #1a3052;
      }

      .cls-15 {
        fill: #fff;
      }

      .cls-16 {
        fill: #e0623f;
      }

      .cls-17 {
        fill: #f7fbff;
      }

      .cls-18 {
        fill: url(#linear-gradient-7);
      }

      .cls-19 {
        fill: url(#linear-gradient-3);
      }

      .cls-20 {
        fill: #feeeee;
      }

      .cls-21 {
        fill: #36d67f;
      }

      .cls-22 {
        fill: #ebf6ff;
      }

      .cls-23 {
        fill: url(#linear-gradient-9);
      }

      .cls-24 {
        fill: #ec364f;
      }

      .cls-25 {
        fill: #f27851;
      }

      .cls-26 {
        fill: #ee9d7f;
      }

      .cls-27 {
        mix-blend-mode: overlay;
        opacity: .2;
      }

      .cls-28 {
        fill: url(#linear-gradient-8);
      }

      .cls-29 {
        fill: #13a04c;
      }

      .cls-30 {
        fill: #7878d6;
      }

      .cls-31 {
        fill: url(#linear-gradient-10);
      }

      .cls-32 {
        fill: #dee0ff;
      }

      .cls-33 {
        fill: #58c8ff;
      }

      .cls-34 {
        fill: url(#linear-gradient-4);
      }

      .cls-35 {
        fill: #4d93ff;
      }
    </style>
    <linearGradient id="linear-gradient" x1="0" y1="349.55" x2="1080" y2="349.55" gradientUnits="userSpaceOnUse">
      <stop offset="0" stop-color="#ace5fc"/>
      <stop offset=".25" stop-color="#ace5fc" stop-opacity=".99"/>
      <stop offset=".39" stop-color="#ace5fc" stop-opacity=".96"/>
      <stop offset=".5" stop-color="#ace5fc" stop-opacity=".91"/>
      <stop offset=".6" stop-color="#ace5fc" stop-opacity=".83"/>
      <stop offset=".68" stop-color="#ace5fc" stop-opacity=".73"/>
      <stop offset=".76" stop-color="#ace5fc" stop-opacity=".61"/>
      <stop offset=".84" stop-color="#ace5fc" stop-opacity=".46"/>
      <stop offset=".9" stop-color="#ace5fc" stop-opacity=".29"/>
      <stop offset=".97" stop-color="#ace5fc" stop-opacity=".1"/>
      <stop offset="1" stop-color="#ace5fc" stop-opacity="0"/>
    </linearGradient>
    <linearGradient id="linear-gradient-2" x1="12.51" y1="692.01" x2="1002.37" y2="692.01" gradientUnits="userSpaceOnUse">
      <stop offset="0" stop-color="#0b36af"/>
      <stop offset=".17" stop-color="#0b36af" stop-opacity=".98"/>
      <stop offset=".32" stop-color="#0b36af" stop-opacity=".92"/>
      <stop offset=".47" stop-color="#0b36af" stop-opacity=".82"/>
      <stop offset=".61" stop-color="#0b36af" stop-opacity=".67"/>
      <stop offset=".74" stop-color="#0b36af" stop-opacity=".48"/>
      <stop offset=".88" stop-color="#0b36af" stop-opacity=".26"/>
      <stop offset="1" stop-color="#0b36af" stop-opacity="0"/>
    </linearGradient>
    <linearGradient id="linear-gradient-3" x1="180.84" y1="77.82" x2="589.96" y2="565.39" gradientUnits="userSpaceOnUse">
      <stop offset="0" stop-color="#31f4a0"/>
      <stop offset=".09" stop-color="#3ae9b7"/>
      <stop offset=".21" stop-color="#45ddd1"/>
      <stop offset=".35" stop-color="#4dd3e5"/>
      <stop offset=".5" stop-color="#53cdf4"/>
      <stop offset=".69" stop-color="#56c9fc"/>
      <stop offset="1" stop-color="#58c8ff"/>
    </linearGradient>
    <linearGradient id="linear-gradient-4" x1="335.55" y1="31.68" x2="531.41" y2="31.68" gradientTransform="translate(822.62) rotate(-180) scale(1 -1)" xlink:href="#linear-gradient-3"/>
    <linearGradient id="linear-gradient-5" x1="247.95" y1="263.18" x2="463.99" y2="263.18" gradientUnits="userSpaceOnUse">
      <stop offset="0" stop-color="#58c8ff" stop-opacity=".7"/>
      <stop offset=".11" stop-color="#58c8ff" stop-opacity=".66"/>
      <stop offset=".29" stop-color="#58c8ff" stop-opacity=".57"/>
      <stop offset=".52" stop-color="#58c8ff" stop-opacity=".41"/>
      <stop offset=".78" stop-color="#58c8ff" stop-opacity=".2"/>
      <stop offset="1" stop-color="#58c8ff" stop-opacity="0"/>
    </linearGradient>
    <linearGradient id="linear-gradient-6" y1="289.82" y2="289.82" xlink:href="#linear-gradient-5"/>
    <linearGradient id="linear-gradient-7" y1="316.46" y2="316.46" xlink:href="#linear-gradient-5"/>
    <linearGradient id="linear-gradient-8" y1="412.62" y2="412.62" xlink:href="#linear-gradient-5"/>
    <linearGradient id="linear-gradient-9" y1="439.26" y2="439.26" xlink:href="#linear-gradient-5"/>
    <linearGradient id="linear-gradient-10" y1="465.89" y2="465.89" xlink:href="#linear-gradient-5"/>
    <linearGradient id="linear-gradient-11" y1="551.38" y2="551.38" xlink:href="#linear-gradient-5"/>
    <linearGradient id="linear-gradient-12" y1="578.02" y2="578.02" xlink:href="#linear-gradient-5"/>
    <linearGradient id="linear-gradient-13" y1="604.65" y2="604.65" xlink:href="#linear-gradient-5"/>
  </defs>
  <g class="cls-36">
    <g id="Layer_1" data-name="Layer 1">
      <path class="cls-8" d="M997.75,676.51c-18.1-11.21-100.4-15.15-429.99-15.15-394.03,0-555.25,14.14-555.25,31.08,0,.13.01.27.03.4h-.27c-59.7-208.36,118.43-273.05,106.73-414.06C91.15-56.86,686.52-56.86,793.81,139.85c81.86,150.09,38.56,138.43,179.93,227.73,177.3,112.06,94.75,244.22,24.01,308.92Z"/>
      <path class="cls-5" d="M1002.37,683.95c0,16.92-40.58,38.7-434.61,38.7S15.04,709.58,12.54,692.85c-.02-.13-.03-.27-.03-.4,0-16.94,161.22-31.08,555.25-31.08,329.59,0,411.89,3.94,429.99,15.15,3.54,2.19,4.62,4.66,4.62,7.43Z"/>
      <path class="cls-14" d="M638.85,637.32c0,21.45-17.53,38.81-39.17,38.81H168.74c-21.62,0-39.17-17.36-39.17-38.81V45.07c0-21.45,17.55-38.82,39.17-38.82h430.93c21.64,0,39.17,17.38,39.17,38.82v592.25Z"/>
      <path class="cls-19" d="M593.42,545.33c0,20.81-17.53,37.73-39.19,37.73H216.55c-21.61,0-39.16-16.92-39.16-37.73V97.88c0-20.83,17.55-37.72,39.16-37.72h337.68c21.66,0,39.19,16.89,39.19,37.72v447.44Z"/>
      <path class="cls-32" d="M398.29,634.28c0,12.29-10.06,22.23-22.42,22.23s-22.45-9.95-22.45-22.23,10.04-22.25,22.45-22.25,22.42,9.96,22.42,22.25Z"/>
      <path class="cls-34" d="M291.21,31.66c0,2.87,2.34,5.19,5.22,5.19h185.41c2.88,0,5.22-2.32,5.22-5.19h0c0-2.84-2.34-5.16-5.22-5.16h-185.41c-2.88,0-5.22,2.32-5.22,5.16h0Z"/>
      <path class="cls-15" d="M461.74,96.4H180.09l-115.49,120.61v431.69c0,19.24,15.57,34.83,34.81,34.83h362.33c19.22,0,34.83-15.59,34.83-34.83V131.25c0-19.24-15.61-34.85-34.83-34.85Z"/>
      <path class="cls-35" d="M180.09,96.4l-115.49,120.61v3.41h83.59c19.25,0,34.86-15.59,34.86-34.84v-89.18h-2.96Z"/>
      <path class="cls-33" d="M231.94,299.01c0,29.86-24.2,54.06-54.05,54.06s-54.06-24.2-54.06-54.06,24.21-54.05,54.06-54.05,54.05,24.21,54.05,54.05Z"/>
      <path class="cls-33" d="M231.94,437.78c0,29.85-24.2,54.05-54.05,54.05s-54.06-24.2-54.06-54.05,24.21-54.06,54.06-54.06,54.05,24.2,54.05,54.06Z"/>
      <path class="cls-33" d="M231.94,576.54c0,29.85-24.2,54.07-54.05,54.07s-54.06-24.21-54.06-54.07,24.21-54.05,54.06-54.05,54.05,24.2,54.05,54.05Z"/>
      <g>
        <rect class="cls-10" x="247.95" y="257.87" width="216.04" height="10.62"/>
        <rect class="cls-6" x="247.95" y="284.5" width="216.04" height="10.63"/>
        <rect class="cls-18" x="247.95" y="311.15" width="216.04" height="10.61"/>
        <rect class="cls-28" x="247.95" y="407.31" width="216.04" height="10.62"/>
        <rect class="cls-23" x="247.95" y="433.95" width="216.04" height="10.62"/>
        <rect class="cls-31" x="247.95" y="460.59" width="216.04" height="10.61"/>
        <rect class="cls-9" x="247.95" y="546.07" width="216.04" height="10.62"/>
        <rect class="cls-2" x="247.95" y="572.71" width="216.04" height="10.62"/>
        <rect class="cls-13" x="247.95" y="599.35" width="216.04" height="10.6"/>
      </g>
      <path class="cls-12" d="M242.86,385.28c1.04,2.97-.54,6.22-3.51,7.26l-145.95,50.7c-2.98,1.02-6.23-.54-7.26-3.52l-35.18-101.26c-1.03-2.98.54-6.21,3.52-7.26l145.95-50.7c2.97-1.03,6.22.54,7.26,3.51l35.17,101.26Z"/>
      <g>
        <path class="cls-29" d="M93.1,342.99c2.34,6.72-1.22,14.08-7.95,16.41-6.71,2.33-14.07-1.22-16.39-7.94-2.34-6.73,1.21-14.08,7.94-16.41,6.73-2.33,14.07,1.22,16.41,7.94Z"/>
        <path class="cls-3" d="M91.49,342.91c2.34,6.73-1.23,14.07-7.96,16.41-6.73,2.33-14.07-1.22-16.39-7.95-2.34-6.72,1.21-14.06,7.94-16.41,6.73-2.33,14.07,1.23,16.41,7.95Z"/>
        <path class="cls-21" d="M91.49,342.91c-2.34-6.72-9.68-10.28-16.41-7.95l8.45,24.36c6.73-2.34,10.29-9.68,7.96-16.41Z"/>
        <path class="cls-29" d="M127.08,331.18c2.34,6.72-1.23,14.07-7.94,16.4-6.73,2.34-14.09-1.22-16.41-7.94-2.34-6.72,1.21-14.07,7.94-16.41,6.73-2.34,14.07,1.22,16.41,7.95Z"/>
        <path class="cls-3" d="M125.47,331.1c2.34,6.73-1.22,14.07-7.95,16.4-6.71,2.34-14.07-1.22-16.41-7.94-2.34-6.72,1.22-14.07,7.95-16.41,6.73-2.33,14.07,1.23,16.41,7.95Z"/>
        <path class="cls-21" d="M125.47,331.1c-2.34-6.72-9.68-10.28-16.41-7.95l8.46,24.36c6.73-2.33,10.29-9.68,7.95-16.4Z"/>
        <path class="cls-29" d="M163.34,318.58c2.34,6.73-1.23,14.07-7.95,16.41-6.73,2.34-14.07-1.22-16.41-7.94-2.32-6.73,1.22-14.07,7.95-16.42,6.73-2.34,14.07,1.23,16.41,7.95Z"/>
        <path class="cls-3" d="M161.72,318.5c2.33,6.73-1.22,14.08-7.95,16.41-6.73,2.35-14.06-1.22-16.4-7.94-2.34-6.73,1.22-14.08,7.95-16.42,6.71-2.33,14.07,1.23,16.4,7.95Z"/>
        <path class="cls-21" d="M161.72,318.5c-2.33-6.72-9.69-10.28-16.4-7.95l8.45,24.36c6.73-2.33,10.28-9.68,7.95-16.41Z"/>
        <path class="cls-29" d="M201.84,305.2c2.34,6.73-1.21,14.08-7.94,16.42-6.73,2.33-14.07-1.23-16.41-7.96-2.34-6.72,1.22-14.07,7.94-16.41,6.74-2.34,14.07,1.23,16.41,7.94Z"/>
        <path class="cls-3" d="M200.23,305.14c2.33,6.72-1.21,14.07-7.94,16.4-6.73,2.34-14.07-1.22-16.41-7.95-2.33-6.72,1.23-14.07,7.94-16.4,6.73-2.35,14.07,1.22,16.41,7.95Z"/>
        <path class="cls-21" d="M200.23,305.14c-2.34-6.73-9.68-10.29-16.41-7.95l8.47,24.34c6.73-2.33,10.27-9.67,7.94-16.4Z"/>
      </g>
      <g>
        <path class="cls-29" d="M117.39,412.94c2.34,6.72-1.22,14.08-7.95,16.41-6.71,2.33-14.07-1.22-16.39-7.94-2.34-6.73,1.21-14.08,7.94-16.41,6.73-2.33,14.07,1.22,16.41,7.94Z"/>
        <path class="cls-3" d="M115.78,412.86c2.34,6.73-1.23,14.07-7.96,16.41-6.73,2.33-14.07-1.22-16.39-7.95-2.34-6.72,1.21-14.06,7.94-16.41,6.73-2.33,14.07,1.23,16.41,7.95Z"/>
        <path class="cls-21" d="M115.78,412.86c-2.34-6.72-9.68-10.28-16.41-7.95l8.45,24.36c6.73-2.34,10.29-9.68,7.96-16.41Z"/>
        <path class="cls-29" d="M151.38,401.13c2.34,6.72-1.23,14.07-7.94,16.4-6.73,2.34-14.09-1.22-16.41-7.94-2.34-6.72,1.21-14.07,7.94-16.41,6.73-2.34,14.07,1.22,16.41,7.95Z"/>
        <path class="cls-3" d="M149.77,401.05c2.34,6.73-1.22,14.07-7.95,16.4-6.71,2.34-14.07-1.22-16.41-7.94-2.34-6.72,1.22-14.07,7.95-16.41,6.73-2.33,14.07,1.23,16.41,7.95Z"/>
        <path class="cls-21" d="M149.77,401.05c-2.34-6.72-9.68-10.28-16.41-7.95l8.46,24.36c6.73-2.33,10.29-9.68,7.95-16.4Z"/>
        <path class="cls-29" d="M187.63,388.54c2.34,6.73-1.23,14.07-7.95,16.41-6.73,2.34-14.07-1.22-16.41-7.94-2.32-6.73,1.22-14.07,7.95-16.42,6.73-2.34,14.07,1.23,16.41,7.95Z"/>
        <path class="cls-3" d="M186.02,388.46c2.33,6.73-1.22,14.08-7.95,16.41-6.73,2.35-14.06-1.22-16.4-7.94-2.34-6.73,1.22-14.08,7.95-16.42,6.71-2.33,14.07,1.23,16.4,7.95Z"/>
        <path class="cls-21" d="M186.02,388.46c-2.33-6.72-9.69-10.28-16.4-7.95l8.45,24.36c6.73-2.33,10.28-9.68,7.95-16.41Z"/>
        <path class="cls-29" d="M226.14,375.15c2.34,6.73-1.21,14.08-7.94,16.42-6.73,2.33-14.07-1.23-16.41-7.96-2.34-6.72,1.22-14.07,7.94-16.41,6.74-2.34,14.07,1.23,16.41,7.94Z"/>
        <path class="cls-3" d="M224.53,375.09c2.33,6.72-1.21,14.07-7.94,16.4-6.73,2.34-14.07-1.22-16.41-7.95-2.33-6.72,1.23-14.07,7.94-16.4,6.73-2.35,14.07,1.22,16.41,7.95Z"/>
        <path class="cls-21" d="M224.53,375.09c-2.34-6.73-9.68-10.29-16.41-7.95l8.47,24.34c6.73-2.33,10.27-9.67,7.94-16.4Z"/>
      </g>
      <g>
        <path class="cls-29" d="M105.24,377.96c2.34,6.72-1.22,14.08-7.95,16.41-6.71,2.33-14.07-1.22-16.39-7.94-2.34-6.73,1.21-14.08,7.94-16.41,6.73-2.33,14.07,1.22,16.41,7.94Z"/>
        <path class="cls-3" d="M103.64,377.88c2.34,6.73-1.23,14.07-7.96,16.41-6.73,2.33-14.07-1.22-16.39-7.95-2.34-6.72,1.21-14.06,7.94-16.41,6.73-2.33,14.07,1.23,16.41,7.95Z"/>
        <path class="cls-21" d="M103.64,377.88c-2.34-6.72-9.68-10.28-16.41-7.95l8.45,24.36c6.73-2.34,10.29-9.68,7.96-16.41Z"/>
        <path class="cls-29" d="M139.23,366.16c2.34,6.72-1.23,14.07-7.94,16.4-6.73,2.34-14.09-1.22-16.41-7.94-2.34-6.72,1.21-14.07,7.94-16.41,6.73-2.34,14.07,1.22,16.41,7.95Z"/>
        <path class="cls-3" d="M137.62,366.08c2.34,6.73-1.22,14.07-7.95,16.4-6.71,2.34-14.07-1.22-16.41-7.94-2.34-6.72,1.22-14.07,7.95-16.41,6.73-2.33,14.07,1.23,16.41,7.95Z"/>
        <path class="cls-21" d="M137.62,366.08c-2.34-6.72-9.68-10.28-16.41-7.95l8.46,24.36c6.73-2.33,10.29-9.68,7.95-16.4Z"/>
        <path class="cls-29" d="M175.48,353.56c2.34,6.73-1.23,14.07-7.95,16.41-6.73,2.34-14.07-1.22-16.41-7.94-2.32-6.73,1.22-14.07,7.95-16.42,6.73-2.34,14.07,1.23,16.41,7.95Z"/>
        <path class="cls-3" d="M173.87,353.48c2.33,6.73-1.22,14.08-7.95,16.41-6.73,2.35-14.06-1.22-16.4-7.94-2.34-6.73,1.22-14.08,7.95-16.42,6.71-2.33,14.07,1.23,16.4,7.95Z"/>
        <path class="cls-21" d="M173.87,353.48c-2.33-6.72-9.69-10.28-16.4-7.95l8.45,24.36c6.73-2.33,10.28-9.68,7.95-16.41Z"/>
        <path class="cls-29" d="M213.99,340.18c2.34,6.73-1.21,14.08-7.94,16.42-6.73,2.33-14.07-1.23-16.41-7.96-2.34-6.72,1.22-14.07,7.94-16.41,6.74-2.34,14.07,1.23,16.41,7.94Z"/>
        <path class="cls-3" d="M212.38,340.11c2.33,6.72-1.21,14.07-7.94,16.4-6.73,2.34-14.07-1.22-16.41-7.95-2.33-6.72,1.23-14.07,7.94-16.4,6.73-2.35,14.07,1.22,16.41,7.95Z"/>
        <path class="cls-21" d="M212.38,340.11c-2.34-6.73-9.68-10.29-16.41-7.95l8.47,24.34c6.73-2.33,10.27-9.67,7.94-16.4Z"/>
      </g>
      <path class="cls-27" d="M93.4,443.24l145.95-50.7c2.96-1.04,4.55-4.28,3.51-7.26l-35.17-101.26c-.53-1.5-1.62-2.64-2.95-3.28l-117.72,160.55c1.44,1.9,3.99,2.78,6.39,1.95Z"/>
      <path class="cls-26" d="M147.94,620.12c-5.46,25.86-11.89,81.09-1.38,81.38,10.51.28,16.38-3.54,10.32-5.6-6.04-2.06-6.29-2.86-6.1-4.92,2.61-26.66,37.11-68.24,40.04-99.95.98-10.84,1.67-20.73,2.14-29.41,3.92,23.23,1.03,47.85,1.37,56.01,1.11,28.98,6.25,83.76,17.73,83.86,12.25.11,18.28-3.98,10.45-5.95-6.77-1.71-6.49-2.1-6.37-4.12,1.65-29.26,13.4-83.36,15.65-118.12,2.6-40.11-79.09,24.21-83.85,46.82Z"/>
      <path class="cls-7" d="M220.73,508.86c-20.93,16.87-47.83,11.63-59.22,8.97-3.08,30.08-21.1,142.76-23.19,158.24,9.18,3.68,12.25,4.46,14.9,4.46,44.38-69.15,39.27-98.79,39.74-107.47,1.67,10.01-3.81,59.21,5.76,107.47,3.24,2.49,12.96,5.76,19.92,0,.36-3.1,18.29-76.63,15.57-107.23-2.64-29.42-8.67-53.27-13.47-64.45Z"/>
      <path class="cls-35" d="M205.62,694.91s9.14,4.38,14.76,0c0,0,10.3,1.69,3.84,4.71-6.49,3.03-18.99,5.54-18.6-4.71Z"/>
      <path class="cls-35" d="M142.13,695.9s9.12,4.37,14.76,0c0,0,10.3,1.69,3.81,4.72-6.47,3.01-18.96,5.53-18.56-4.72Z"/>
      <path class="cls-25" d="M203.18,464.18c-1.24-2.72-1.99-11.64,4.98-16.34,9.37-6.31,32.2-8.54,39.02-22.62,6.8-14.1.9-22.84-2.31-29.23-3.22-6.37-7.47-7.43-8.91-11.36-1.47-3.91,3.25-5.45,10.82,3.56,3.62,4.31,24.05,23.42,19.03,41.69-6.57,23.97-55.25,50.36-62.62,34.3Z"/>
      <path class="cls-22" d="M206.06,461.07s5.74,11.88,23.66,3.83c17.92-8.04,24.61-14.02,24.61-14.02,0,0-1.59-12.78-16.02-26.81,0,0-42.71,21.45-32.25,37Z"/>
      <path class="cls-35" d="M226.36,516.09c1.66-28.92-.16-41.96-2.85-56.7-3.21-17.44-33.37-13.27-44.21-8.84-10.84,4.45-28.75,11.36-15.99,33.92,8.88,15.72-14.87,35,3.04,44.09-.03,0,58.26,17.94,60.02-12.47Z"/>
      <path class="cls-17" d="M179.3,450.55s27.37,23.44,9.15,88.4c-18.24,64.96-29.55,87.39-29.55,87.39,0,0-25.13-5.14-34-12.62-8.88-7.48,35.23-93,34.9-111.22-.32-18.23-4.99-38.85,6.23-47.24,11.2-8.37,13.27-4.71,13.27-4.71Z"/>
      <path class="cls-25" d="M174.98,463.42c-1.33-2.66-7.83-8.82-15.88-6.25-10.82,3.4-26.96,19.99-42.25,16.56-15.3-3.44-18.4-13.53-21.37-20.05-2.98-6.5-1.11-10.48-3.28-14.07-2.14-3.57-6.29-.85-4.04,10.71,1.1,5.53,3.15,33.52,20.62,40.96,22.85,9.77,74.14-12.03,66.2-27.87Z"/>
      <path class="cls-22" d="M178.5,463.43s-3.75-11.97-21.72-6.92c-17.97,5.05-25.1,9.74-25.1,9.74,0,0-.3,12.24,11.31,27.47,0,0,43.19-14.18,35.52-30.28Z"/>
      <path class="cls-17" d="M199.87,445.88s29.5,25.43,14.76,157.09c0,0,20.56,4.42,32.72-6.68,12.15-11.09-11.99-124.97-25.78-144.92-2.17-3.15-7.31-5.78-21.7-5.5Z"/>
      <path class="cls-11" d="M181.9,435.08s6.23,8.04.97,14.24c-5.39,6.36,22.79,14.1,21,9-2.32-6.58-6.66-9.82-5.1-18.36l-16.87-4.87Z"/>
      <path class="cls-25" d="M192.36,414.85c6.98,4.15,18.53,26.64,13.64,33.27-2.11,2.86-13.57,2.72-22.76-6.24-3.78-3.69-9.1-10.97-6.53-20.09,1.12-4.13,7.53-11.76,15.65-6.95Z"/>
      <path class="cls-14" d="M198.88,416.42c1.95,2.72,1.73,3.48-6.98,6.87-8.7,3.38-10.38,3.15-8.97,5.09,4.09,5.71-2.61,5.9,2.35,12.71,5.01,6.79-3.57,3.89-8.3-1.5-.94-1.11-6.09-6.31-3.79-16.67,2.65-12.08,18.52-16.44,25.69-6.5Z"/>
      <path class="cls-14" d="M173.19,422.93c-2.64,9.66,2.85,15.56,3.79,16.67,3.5,4.02,9.17,6.75,9.74,4.92.67-2.21-5.27-1.65-4.82-7.33.42-5.66-3.35-6-3.55-10.81-.19-4.81,3.45-4.69,13.27-8.53,3.98-1.56,4.4-3.34,3.53-4.88-7.87-4.98-19.17-.19-21.96,9.97Z"/>
      <path class="cls-21" d="M724.63,232.37s31.54-45.7,92.47,0c51.07,38.29,236.43,222.12,195.83,449.88,0,0-2.91,21.76-46.42,21.76s-42.6-23.21-101.81-31.92c-59.21-8.69-165.68-15.92-168.01-134.9-2.31-118.98-6.86-265.64,27.96-304.81Z"/>
      <path class="cls-1" d="M811.8,228.82c-51.49-37.71-84.86,0-84.86,0-6.41,7.21-14.23,20.64-17.5,34.28,3.31,34.25,19.05,66.94,55.96,71.21,73.98,8.57,151.8,16.64,169.21,66.69,13.95,40.11,42.8,130.56,70.64,114.83-43.81-160.88-156.22-259.75-193.45-287.01Z"/>
      <path class="cls-12" d="M864.69,672.08c59.21,8.72,58.3,31.92,101.81,31.92,8.48,0,15.37-.85,21.06-2.17-161.17-35.41-161.13-104.69-200.92-152.85-23.89-28.93-62.29-33.13-90.48-31.53.21,6.64.39,13.23.51,19.74,2.33,118.98,108.8,126.21,168.01,134.9Z"/>
      <path class="cls-20" d="M808.54,415.19s43.17,38.36,16.68,49.43c-39.05,16.29-40.53,48.21-40.53,48.21,0,0-.5-36.16,20.29-46.12,20.78-9.94,34.33-12.68-9.56-53.99l13.11,2.47Z"/>
      <path class="cls-21" d="M592.58,230.59s-31.56-45.69-92.48,0c-51.05,38.29-236.44,222.12-195.82,449.88,0,0,2.91,21.75,46.42,21.75s42.61-23.21,101.81-31.92c59.22-8.69,165.69-15.92,168.01-134.9,2.32-118.99,6.87-265.64-27.94-304.82Z"/>
      <path class="cls-1" d="M505.4,227.04c51.49-37.72,84.86,0,84.86,0,6.41,7.21,14.24,20.64,17.49,34.28-3.3,34.25-19.04,66.94-55.95,71.21-73.98,8.57-151.81,16.64-169.22,66.69-13.94,40.11-42.8,130.56-70.63,114.81,43.81-160.87,156.22-259.74,193.44-287Z"/>
      <path class="cls-12" d="M452.51,670.3c-59.2,8.71-58.29,31.92-101.81,31.92-8.48,0-15.37-.84-21.05-2.17,161.16-35.41,161.12-104.69,200.91-152.85,23.88-28.93,62.3-33.13,90.47-31.53-.2,6.64-.39,13.23-.52,19.74-2.32,118.98-108.8,126.21-168.01,134.9Z"/>
      <g>
        <path class="cls-4" d="M885.27,483.5c-7.46-25.02-19.31-42.46-33.57-55.07,31.55-18.13,46.24-2.36,58.79,15.34-3.06,3.24-9.47,11.64-2.71,19.52,1.14,1.33,2.26,2.57,3.34,3.78-6.67,5.17-7.92,14.19-6.29,18.55,2.42,6.4,6,14.08,6,14.08,0,0-1.28-4.53-4.31-12.95-2.64-7.26,5.41-14.3,7.69-16.12,5.46,6.61,9.27,13.84,8.97,30.83,0,0,4.38-21.34-3.56-34.4-7.09-11.7-8.31-12.15-4.97-17.34,3.22,4.66,6.4,9.2,9.82,13.05,18.12,20.42,42.05,17.24,42.05,17.24-35.58-4.42-37.7-45.64-67.44-63.78-7.03-4.29-13.92-6.17-20.37-6.56-.71-10.79-.64-9.41,14.91-18.09,15.59-8.72,23.58-34.1,23.58-34.1-9.56,18.17-17.61,23.34-26.96,26.83-1.26-3.4-5.29-16,1.59-21.99,7.96-6.97,11.88-10.91,11.88-10.91,0,0-8.08,5.8-14.24,11.04-4.17,3.55-8.17,13.9-4.45,23.66-1.79.58-3.63,1.18-5.55,1.85-11.11,3.89-9.88,16.33-8.69,21.95-13.54,1.61-24.01,8.94-27.58,11.75-11.49-8.25-24.16-14-37.13-18.46-45-20.76-48.53-34.08-41.41-53.27,21.43-2.86,33.84-22.36,34.33-33.08.65-14.23,0-31.75,0-31.75,0,0-2.08,11.63-3.17,30.25-.86,14.77-19.05,21.53-26.52,23.69,1.08-2.36,2.22-4.81,3.38-7.37,13.78-30.46-3.44-82.96-3.44-82.96,0,0,7.81,27.7-.36,64.62-6.36-5.93-19.14-19.96-14.33-33.34,6.3-17.55,8.95-26.99,8.95-26.99,0,0-7.47,15.86-12.46,29.2-3.51,9.4-.45,29.94,15.14,41.6-2.51,8.52-5.91,17.4-10.46,26.46-8.76,17.42-.53,31.77,10.46,42.01-9.6-2.33-18.87-4.62-27.44-7.39-49.33-15.95-52.22-69.62-52.22-69.62v-169.23l5.09-42.9h-60.92v1.78h-5.1l5.1,43v165.56s-2.9,53.68-52.23,69.63c-8.57,2.77-17.84,5.06-27.43,7.39,10.98-10.24,19.2-24.59,10.45-42-4.55-9.06-7.95-17.94-10.46-26.46,15.6-11.66,18.66-32.2,15.14-41.6-4.98-13.34-12.45-29.2-12.45-29.2,0,0,2.66,9.45,8.96,26.98,4.8,13.38-7.98,27.42-14.34,33.35-8.18-36.93-.36-64.63-.36-64.63,0,0-17.22,52.5-3.43,82.96,1.16,2.57,2.3,5.02,3.38,7.38-7.46-2.16-25.67-8.91-26.53-23.69-1.08-18.62-3.16-30.25-3.16-30.25,0,0-.65,17.52,0,31.76.5,10.71,12.91,30.21,34.34,33.08,7.11,19.18,3.58,32.49-41.36,53.25-12.99,4.47-25.67,10.23-37.18,18.48-3.58-2.81-14.04-10.13-27.58-11.75,1.18-5.63,2.4-18.07-8.7-21.95-1.92-.67-3.76-1.27-5.54-1.85,3.72-9.76-.28-20.1-4.45-23.66-6.15-5.23-14.24-11.04-14.24-11.04,0,0,3.92,3.95,11.88,10.9,6.87,5.99,2.84,18.6,1.58,22-9.35-3.49-17.39-8.67-26.95-26.82,0,0,7.98,25.39,23.57,34.1,15.58,8.69,15.64,7.31,14.92,18.09-6.44.4-13.33,2.28-20.36,6.56-29.74,18.14-31.87,59.37-67.44,63.78,0,0,23.92,3.18,42.06-17.24,3.42-3.85,6.6-8.39,9.82-13.05,3.34,5.19,2.12,5.64-4.98,17.34-7.93,13.06-3.56,34.4-3.56,34.4-.3-16.99,3.52-24.21,8.97-30.83,2.28,1.81,10.33,8.85,7.7,16.11-3.04,8.42-4.32,12.94-4.32,12.94,0,0,3.59-7.67,5.99-14.07,1.63-4.36.39-13.38-6.28-18.55,1.08-1.21,2.19-2.45,3.33-3.77,6.77-7.88.36-16.28-2.7-19.52,12.54-17.7,27.24-33.47,58.78-15.33-14.25,12.61-26.1,30.05-33.56,55.07-24.66,82.68-56.57,136.35-81.24,146.51,0,0,48.55-16.5,86.9-115.39,22.47,22.16,21.5,34.57,12.66,49.92-18.53-1.13-33.09,15.66-35.78,26.04-3.57,13.79-6.77,31.02-6.77,31.02,0,0,4.22-10.98,9.1-28.96,3.88-14.28,20.54-17.56,27.24-18.31-1.41,2.1-2.88,4.29-4.4,6.59-18.03,27.24-14.81,81.67-14.81,81.67,0,0-.64-28.49,14.07-63.07,4.05,6.95,11.75,23,4.89,35.19-9.01,16-13.25,24.73-13.25,24.73,0,0,9.63-14.12,16.66-26.26,4.94-8.53,6.75-29.16-3.81-43.4,3.92-7.86,8.65-15.92,14.39-23.93,19.36-27.02-6.92-54.36-15.98-62.53,3.08-8.62,6.08-17.8,8.96-27.61,5.01-17.07,16.84-35.74,43.72-45.48-4.07,5.09-7.92,10.86-9.84,16.33-14.89,12.88-16.3,33.85-12,43,6.07,12.9,14.82,28.08,14.82,28.08,0,0-3.41-9.2-11.16-26.16-5.14-11.32,3.1-24.27,9.16-31.64,1.38,1.88,3.48,3.5,6.51,4.76,39.04,16.3,40.52,48.22,40.52,48.22,0,0,.49-36.15-20.29-46.11-16.73-8.01-28.78-11.35-9.88-33.95,2.16.29,28.95,4.24,31.45,21.96,2.62,18.47,5.64,29.88,5.64,29.88,0,0-.8-17.51-2.62-31.65-1.09-8.4-10.03-21.65-24.38-27.39,17.17-2.97,38.79-3.01,66.02,1.36,24.51,3.94,63.36,8.17,79.9-53.26,16.27,63.29,55.63,59.01,80.38,55.04,27.23-4.37,48.85-4.34,66.01-1.37-14.35,5.74-23.29,18.99-24.38,27.39-1.82,14.13-2.6,31.65-2.6,31.65,0,0,3.01-11.42,5.63-29.89,2.61-18.46,31.6-21.98,31.6-21.98l2.45-4.23c30.62,9.11,43.65,29.05,48.98,47.2,2.88,9.8,5.88,18.98,8.96,27.6-9.06,8.17-35.35,35.51-15.99,62.54,5.74,8.01,10.48,16.07,14.39,23.93-10.56,14.25-8.75,34.87-3.81,43.41,7.03,12.12,16.66,26.26,16.66,26.26,0,0-4.24-8.74-13.25-24.74-6.86-12.2.84-28.25,4.89-35.2,14.72,34.59,14.08,63.08,14.08,63.08,0,0,3.21-54.44-14.81-81.68-1.52-2.3-3-4.48-4.4-6.59,6.71.75,23.37,4.03,27.24,18.31,4.88,17.99,9.09,28.97,9.09,28.97,0,0-3.19-17.23-6.77-31.03-2.68-10.37-17.23-27.15-35.77-26.04-8.84-15.34-9.82-27.76,12.66-49.91,38.35,98.9,86.9,115.4,86.9,115.4-24.66-10.17-56.57-63.84-81.23-146.52Z"/>
        <path class="cls-4" d="M826.73,442.39l-.5,11.49s22.37,20.63,14.64,37.6c-7.73,16.97-11.15,26.17-11.15,26.17,0,0,8.74-15.2,14.83-28.09,4.81-10.22,2.49-35.21-17.81-47.17Z"/>
      </g>
      <g>
        <path class="cls-21" d="M696.16,134.46c0,4.2-3.41,7.61-7.61,7.61h-58.84c-4.2,0-7.62-3.41-7.62-7.61h0c0-4.22,3.42-7.62,7.62-7.62h58.84c4.2,0,7.61,3.4,7.61,7.62h0Z"/>
        <path class="cls-21" d="M696.16,169.27c0,4.21-3.41,7.62-7.61,7.62h-58.84c-4.2,0-7.62-3.41-7.62-7.62h0c0-4.22,3.42-7.61,7.62-7.61h58.84c4.2,0,7.61,3.4,7.61,7.61h0Z"/>
        <path class="cls-21" d="M696.16,221.49c0,4.21-3.41,7.63-7.61,7.63h-58.84c-4.2,0-7.62-3.42-7.62-7.63h0c0-4.21,3.42-7.62,7.62-7.62h58.84c4.2,0,7.61,3.41,7.61,7.62h0Z"/>
        <path class="cls-21" d="M696.16,265.01c0,4.2-3.41,7.61-7.61,7.61h-58.84c-4.2,0-7.62-3.41-7.62-7.61h0c0-4.21,3.42-7.61,7.62-7.61h58.84c4.2,0,7.61,3.4,7.61,7.61h0Z"/>
      </g>
      <path class="cls-14" d="M798.92,417.79s-10.01-4.26-6.25-13.15c3.27-7.73,7.88,5.54,22.58-3.77,8.04-5.1,25.83-1.49,18.3,11.14-7.88,13.21,13.04,2.13,15.67,17.36,1.69,9.82-18.25,14.95-6.67,17.89,11.57,2.93,19.13,11.75,12.21,22.88-6.81,10.97-27.2,11.28-35.26,1.56-8.04-9.72-29.29-24.44-19.17-40.12,12.38-19.2-1.41-13.79-1.41-13.79Z"/>
      <path class="cls-11" d="M800,449.63s-5.26-2.76-10.74,4.82c-6.33,8.83-5.18,35.02-17.44,44.13-12.25,9.1-22.17,5.2-29.14,3.4-6.97-1.81-8.97-5.63-13.14-6.25-4.14-.64-4.58,4.1,5.93,9.53,5.04,2.61,28.38,18.23,45.16,10.01,21.97-10.79,32.74-60.15,19.39-65.64Z"/>
      <g>
        <path class="cls-26" d="M763.01,574.07c2.17,33.32,13.42,85.18,15,113.22.12,1.94.39,2.3-6.09,3.96-7.5,1.88-1.73,5.8,9.99,5.7,11.02-.11,15.94-52.6,17.01-80.38.33-7.83-2.44-31.43,1.32-53.7.46,8.33,1.1,17.81,2.05,28.19,2.81,30.39,35.88,70.24,38.37,95.8.19,1.98-.05,2.74-5.86,4.72-5.79,1.96-.16,5.64,9.9,5.36,10.07-.29,3.92-53.21-1.32-78-4.56-21.68-82.85-83.32-80.36-44.88Z"/>
        <path class="cls-24" d="M773.77,512.33c20.06,16.17,45.84,11.14,56.76,8.59,2.95,28.82,20.21,136.82,22.24,151.66-8.82,3.52-11.74,4.28-14.28,4.28-42.55-66.28-37.66-94.68-38.1-103.02-1.6,9.6,3.66,56.77-5.54,103.02-3.07,2.39-12.4,5.51-19.07,0-.33-2.97-17.53-73.46-14.91-102.78,2.53-28.2,8.3-51.05,12.91-61.76Z"/>
        <path class="cls-24" d="M788.1,690.63s-8.76,4.2-14.15,0c0,0-9.88,1.61-3.69,4.51,6.23,2.91,18.2,5.31,17.84-4.51Z"/>
        <path class="cls-24" d="M848.98,691.59s-8.76,4.18-14.18,0c0,0-9.87,1.62-3.64,4.51,6.2,2.9,18.18,5.3,17.82-4.51Z"/>
      </g>
      <path class="cls-25" d="M774.71,515.9s6.31-2.66,3.47-27.92c-1.35-12.06-5.92-12.88,4.04-26.05,10.32-13.62,28.99-19.22,34.91-10.42,11.12,16.58,6.88,24.79,5.83,36.32-.63,6.68-6.36,14.7,2.71,31.68l-50.97-3.61Z"/>
      <path class="cls-35" d="M829.97,522.38s-34.88,11.1-58.01-5.65c0,0-5.72-38.23,7.14-50.4,0,0,10.62,6.43,19.28-5.78,6.96-9.85,14.74-10.48,14.74-10.48,0,0,4.5.42,7.01,2.44,4.2,3.33,5.59,7.57,5.59,7.57l4.25,62.3Z"/>
      <path class="cls-30" d="M830.53,520.92s1.16,9.86-39.29,2.67c-6.13-1.09,5.65-12.08,13.01-12.58,8.43-.55,1.11-9.97-8.7-10.24-9.85-.28-14.21-7.21-4.84-6.02,9.36,1.22,16.01-7.33,13.52-15.84-2.47-8.55,9.7-24.42,9.7-24.42l11.65,5.17c.09.25.15.43.15.43l4.81,60.84Z"/>
      <path class="cls-22" d="M786.33,468s-19.18,113.2-.81,159.49c0,0,46.39,6.79,64.58-8.57,0,0-10.62-154.38-29.89-167.69-3.05-2.1-8.31-6.03-19.88,6.83-2.87,3.19-8.12,10.19-14,9.94Z"/>
      <path class="cls-22" d="M777.02,467.46c3.21-4.53,3.73-5.76,7.19-9.3,11.44-11.74,16.11-9.52,16.11-9.52-9.11,6.2-15.46,13.61-17.02,19.15-10.32,36.46-14.7,150.85-14.7,150.85l-10.19-3.99s2.17-118.61,18.61-147.19Z"/>
      <path class="cls-16" d="M817.16,424.46s-8.83,16.46-5.94,22.81c.91,2.02-16.89,10.26-14.83,6.35,3.84-7.21,3.23-10.31-.46-16.6l21.22-12.56Z"/>
      <path class="cls-25" d="M802.46,413.03c-5.89,5.02-13.38,27.98-7.85,33.41,2.41,2.38,13.21,4.28,20.35-9.49,2.3-4.47,6.85-11.77,3.14-19.91-1.7-3.69-8.77-9.84-15.64-4.01Z"/>
      <path class="cls-14" d="M798.19,413.79c-.74,3.11-.96,4.92,6.21,4.65,8.83-.34,6.98,5.74,5.95,7.79-2.99,6.01,7.77.48,4.14,7.66-3.66,7.18,6.62-1.12,7.48-2.18.92-1.03,4.14-5.69-.17-16.6-4.3-10.91-21.33-10.83-23.62-1.32Z"/>
      <g>
        <path class="cls-14" d="M822.81,524.02c5.58,3.87,6.97,11.53,3.11,17.13h0c-3.89,5.58-11.54,6.97-17.13,3.09l-82.96-57.46c-5.58-3.86-6.97-11.53-3.11-17.11h0c3.87-5.6,11.54-6.99,17.12-3.12l82.96,57.46Z"/>
        <path class="cls-14" d="M746.98,462.97c8.78,6.07,10.97,18.12,4.89,26.88h0c-6.09,8.78-18.13,10.97-26.9,4.89l-26.49-18.35c-8.77-6.07-10.96-18.12-4.88-26.89h0c6.08-8.76,18.12-10.97,26.89-4.88l26.5,18.35Z"/>
        <path class="cls-14" d="M646.59,304.65c-54.6-11.45-108.18,23.52-119.65,78.13-11.47,54.62,23.51,108.2,78.11,119.67,54.63,11.47,108.21-23.51,119.67-78.12,11.47-54.62-23.5-108.2-78.14-119.68ZM609.97,479.09c-41.7-8.77-68.41-49.68-59.65-91.39,8.75-41.71,49.67-68.41,91.36-59.66,41.72,8.74,68.43,49.68,59.67,91.38-8.75,41.7-49.68,68.42-91.39,59.66Z"/>
      </g>
      <path class="cls-11" d="M815.93,452.62s-4.86-2.14-9.28,4.93c-5.12,8.26-2.6,31.53-12.98,40.37-10.4,8.84-19.46,5.94-25.78,4.75-6.33-1.22-8.32-4.5-12.07-4.81-3.74-.31-3.87,3.95,5.82,8.16,4.67,2.04,26.39,14.57,40.85,6.27,18.96-10.89,25.65-55.55,13.44-59.66Z"/>
      <path class="cls-17" d="M813.95,451.67s13.28.48,7.22,30c0,0-10.75,1.8-19.54-1.32,0,0-1.35-27.97,12.32-28.69Z"/>
    </g>
  </g>
</svg>