<?xml version="1.0" encoding="UTF-8"?>
<svg id="Layer_1" data-name="Layer 1" xmlns="http://www.w3.org/2000/svg" xmlns:xlink="http://www.w3.org/1999/xlink" viewBox="0 0 500 500">
  <defs>
    <style>
      .cls-1 {
        fill: url(#linear-gradient);
        stroke-width: 0px;
      }
    </style>
    <linearGradient id="linear-gradient" x1="161.81" y1="89.23" x2="340.91" y2="399.43" gradientUnits="userSpaceOnUse">
      <stop offset="0" stop-color="#27fe89"/>
      <stop offset=".07" stop-color="#2df797"/>
      <stop offset=".26" stop-color="#3ce6bc"/>
      <stop offset=".45" stop-color="#48d9d9"/>
      <stop offset=".64" stop-color="#51cfee"/>
      <stop offset=".82" stop-color="#56c9fa"/>
      <stop offset="1" stop-color="#58c8ff"/>
    </linearGradient>
  </defs>
  <path class="cls-1" d="M421.84,195.28c-.7-20.83-8.84-41.38-22.67-56.97-12.91-14.53-30.66-24.65-49.68-28.55-.48-15.7-13.41-28.34-29.22-28.34s-29.24,13.12-29.24,29.24c0,13.06,8.6,24.14,20.43,27.87v111.08c-12.72,3.16-22.17,14.67-22.17,28.37,0,16.12,13.1,29.24,29.24,29.24s29.24-13.12,29.24-29.24c0-12.42-7.77-23.02-18.68-27.25v-112.2c6.42-2.03,11.9-6.23,15.56-11.74,15.83,2.88,30.66,11.17,41.35,23.21,9.37,10.57,15.49,23.95,17.53,37.92-5.01-4.05-11.41-6.49-18.34-6.49-16.13,0-29.24,13.12-29.24,29.24s13.1,29.24,29.24,29.24,28.2-12.11,29.17-27.35c9.85,10.97,14.64,27.51,11.63,42.28-3.67,18.04-18.79,33.42-36.77,37.39l-6.47,1.44-.43,6.62c-.58,9.26-7.26,19.86-16.6,26.42-8.6,6.01-19.9,9.61-34.55,11.04l-2.07.19c-8.86.82-19.9,1.83-27.96,9.58-7.21,6.92-9.15,16.61-10,23.29-.5,3.97-.75,7.9-.99,11.71-.32,4.87-.61,9.48-1.39,13.92-.98,5.57-3.25,13.15-8.57,17.51-3.96,3.24-9.88,3.86-12.93,1.35-1.84-1.51-3.24-4.45-3.93-8.28-.5-2.66-.66-5.54-.83-8.62-.11-1.99-.22-4.04-.43-6.15-1.7-17.09-9.58-33.75-21.69-45.96.75-2.56,1.15-5.29,1.15-8.09,0-13.06-8.6-24.14-20.43-27.87v-31.16c0-17.54,6.82-34.03,19.22-46.44l6.38-6.38c4.58,2.98,10.06,4.73,15.92,4.73,16.12,0,29.24-13.12,29.24-29.24s-13.12-29.24-29.24-29.24-29.24,13.1-29.24,29.24c0,3.83.74,7.48,2.08,10.83l-7.61,7.61c-15.71,15.73-24.38,36.64-24.38,58.89v31.16c-9.88,3.12-17.49,11.34-19.74,21.58-15.36,3.12-29.54,3.6-42.21,1.41-16.31-2.82-30.6-10.24-40.23-20.91-8.28-9.15-12.98-20.99-13.14-32.33l23.18,2.63c2.26,13.89,14.34,24.53,28.85,24.53,16.13,0,29.24-13.12,29.24-29.24s-13.1-29.24-29.24-29.24c-11.55,0-21.58,6.74-26.32,16.5l-29.38-3.32c-9.04-10.25-12.94-22.68-10.77-34.54,2.23-12.13,10.94-23.26,22.19-28.36l5.24-2.37-.06-5.75c-.22-19.54,9.96-38.27,25.58-48.46l25.58,28.13c-1.99,3.94-3.11,8.38-3.11,13.09,0,16.12,13.1,29.24,29.24,29.24s29.24-13.12,29.24-29.24-13.12-29.24-29.24-29.24c-5,0-9.71,1.27-13.83,3.49l-23.82-26.19c10.83-19.48,32.46-32.12,55.11-32.68,2.08,14.1,14.24,24.94,28.92,24.94,16.12,0,29.24-13.12,29.24-29.24s-13.12-29.24-29.24-29.24c-11.33,0-21.16,6.46-26,15.91h-.02c-29.89-.46-58.94,15.89-73.36,41.6-23.55,11.04-40.02,35.84-41.76,62.54-14.05,8.22-24.27,22.57-27.23,38.62-3.14,17.06,2.11,34.67,14.47,48.91-1.97,17.88,4.34,36.67,17.35,51.1,12.27,13.57,30.13,22.97,50.32,26.45,6.2,1.07,12.67,1.6,19.38,1.6,8.76,0,17.93-.91,27.44-2.71,4.44,10.48,14.83,17.86,26.93,17.86,6.76,0,13.01-2.32,17.96-6.18,7.95,9.07,13.09,20.78,14.29,32.76.16,1.73.27,3.51.37,5.38.19,3.46.4,7.05,1.07,10.78,1.46,8.03,4.93,14.5,10.06,18.73,4.52,3.72,10.27,5.56,16.21,5.56,6.65,0,13.52-2.31,19.1-6.87,7.53-6.17,12.62-15.89,14.77-28.12.95-5.38,1.28-10.69,1.62-15.83.22-3.7.46-7.19.9-10.64.8-6.39,2.29-10.46,4.71-12.78,3.6-3.48,10.28-4.09,17.37-4.74l2.15-.19c17.75-1.71,31.8-6.34,42.95-14.15,11.71-8.2,20.33-20.76,23.17-33.32,22.15-7.24,39.6-26.45,44.28-49.47,4.69-23.02-4.05-48.27-21.4-63.07ZM330.14,277.99c0,6.39-5.21,11.61-11.61,11.61s-11.61-5.22-11.61-11.61,5.21-11.61,11.61-11.61,11.61,5.21,11.61,11.61ZM320.27,122.28c-6.41,0-11.61-5.21-11.61-11.61s5.21-11.61,11.61-11.61,11.61,5.21,11.61,11.61-5.21,11.61-11.61,11.61ZM385.17,222.29c-6.41,0-11.61-5.21-11.61-11.61s5.21-11.61,11.61-11.61,11.61,5.21,11.61,11.61-5.21,11.61-11.61,11.61ZM262.62,190.22c6.41,0,11.61,5.21,11.61,11.61s-5.21,11.61-11.61,11.61-11.61-5.21-11.61-11.61,5.21-11.61,11.61-11.61ZM140.19,266.38c6.41,0,11.61,5.21,11.61,11.61s-5.21,11.61-11.61,11.61-11.61-5.22-11.61-11.61,5.22-11.61,11.61-11.61ZM178.38,172.07c6.41,0,11.61,5.21,11.61,11.61s-5.21,11.61-11.61,11.61-11.61-5.21-11.61-11.61,5.21-11.61,11.61-11.61ZM224.76,83.16c6.41,0,11.61,5.21,11.61,11.61s-5.21,11.61-11.61,11.61-11.61-5.22-11.61-11.61,5.21-11.61,11.61-11.61ZM212.28,349.81c-6.41,0-11.61-5.22-11.61-11.61s5.21-11.61,11.61-11.61,11.61,5.21,11.61,11.61-5.21,11.61-11.61,11.61Z"/>
</svg>