<?xml version="1.0" encoding="UTF-8"?>
<svg id="Layer_1" data-name="Layer 1" xmlns="http://www.w3.org/2000/svg" xmlns:xlink="http://www.w3.org/1999/xlink" viewBox="0 0 500 500">
  <defs>
    <style>
      .cls-1 {
        fill: #27fe89;
      }

      .cls-1, .cls-2, .cls-3 {
        stroke-width: 0px;
      }

      .cls-2 {
        fill: url(#linear-gradient);
      }

      .cls-3 {
        fill: #58c8ff;
      }
    </style>
    <linearGradient id="linear-gradient" x1="59.16" y1="440.66" x2="160.47" y2="340.83" gradientUnits="userSpaceOnUse">
      <stop offset="0" stop-color="#31f3a0"/>
      <stop offset=".09" stop-color="#37ecae"/>
      <stop offset=".35" stop-color="#45dcd1"/>
      <stop offset=".6" stop-color="#4fd1ea"/>
      <stop offset=".82" stop-color="#55caf9"/>
      <stop offset="1" stop-color="#58c8ff"/>
    </linearGradient>
  </defs>
  <path class="cls-1" d="M385.47,250.72h-147.08c-6.34,0-11.97-3.3-15.06-8.83-3.1-5.53-2.97-12.05.35-17.46l73.54-119.93c3.16-5.16,8.66-8.24,14.72-8.24s11.55,3.08,14.72,8.24l73.54,119.93c3.31,5.4,3.44,11.93.35,17.46-3.1,5.53-8.73,8.83-15.06,8.83ZM311.92,108.27c-.89,0-3.1.24-4.49,2.51l-73.54,119.93c-1.46,2.37-.56,4.51-.11,5.32.45.81,1.81,2.69,4.59,2.69h147.08c2.78,0,4.14-1.88,4.59-2.69.45-.81,1.35-2.95-.11-5.32l-73.54-119.93c-1.39-2.27-3.6-2.51-4.49-2.51Z"/>
  <g>
    <circle class="cls-1" cx="311.92" cy="212.49" r="10.88"/>
    <path class="cls-1" d="M318.54,140.98h-13.24c-1.86,0-3.32,1.6-3.15,3.45l4.4,48.11c.15,1.63,1.51,2.87,3.15,2.87h4.44c1.63,0,3-1.25,3.15-2.87l4.4-48.11c.17-1.85-1.29-3.45-3.15-3.45Z"/>
  </g>
  <path class="cls-2" d="M179.78,354.04l-83.88,96.32c-7.21,8.28-19.54,9.74-28.48,3.36-3.55-2.53-7.42-5.72-11.42-9.72-4-4-7.19-7.87-9.72-11.42-6.38-8.94-4.92-21.27,3.36-28.48l96.33-83.88,33.82,33.82Z"/>
  <path class="cls-3" d="M447.02,133.23c-7.34-18.09-18.11-34.31-32.02-48.23-13.91-13.91-30.14-24.69-48.23-32.02-17.46-7.08-35.92-10.68-54.85-10.68s-37.38,3.59-54.85,10.68c-18.09,7.33-34.31,18.11-48.23,32.02-13.91,13.91-24.68,30.14-32.02,48.23-7.08,17.47-10.68,35.92-10.68,54.85s3.59,37.38,10.68,54.85c5.77,14.22,13.67,27.29,23.54,38.99l-16.57,16.57-.94-.94c-2.93-2.93-7.62-3.09-10.74-.37l-17.34,15.1,32.95,32.95,15.1-17.34c2.72-3.12,2.55-7.81-.37-10.74l-.94-.94,16.57-16.57c11.7,9.87,24.76,17.77,38.99,23.54,17.47,7.08,35.92,10.67,54.85,10.67s37.38-3.59,54.85-10.67c18.09-7.34,34.32-18.11,48.23-32.02,13.91-13.91,24.69-30.14,32.02-48.23,7.08-17.47,10.67-35.92,10.67-54.85s-3.59-37.38-10.67-54.85ZM397.28,273.43c-22.8,22.8-53.11,35.35-85.36,35.35s-62.55-12.56-85.35-35.35c-22.8-22.8-35.35-53.11-35.35-85.35s12.56-62.55,35.35-85.35c22.8-22.8,53.11-35.35,85.35-35.35s62.56,12.56,85.36,35.35c22.8,22.8,35.35,53.11,35.35,85.35s-12.56,62.56-35.35,85.35Z"/>
</svg>