<?xml version="1.0" encoding="UTF-8"?>
<svg id="Layer_1" data-name="Layer 1" xmlns="http://www.w3.org/2000/svg" xmlns:xlink="http://www.w3.org/1999/xlink" viewBox="0 0 500 500">
  <defs>
    <style>
      .cls-1 {
        fill: url(#linear-gradient);
      }

      .cls-1, .cls-2, .cls-3, .cls-4 {
        stroke-width: 0px;
      }

      .cls-2 {
        fill: url(#radial-gradient-2);
      }

      .cls-3 {
        fill: url(#radial-gradient);
      }

      .cls-4 {
        fill: #58c8ff;
      }
    </style>
    <radialGradient id="radial-gradient" cx="313.96" cy="125.27" fx="313.96" fy="125.27" r="130.35" gradientUnits="userSpaceOnUse">
      <stop offset="0" stop-color="#58c8ff"/>
      <stop offset=".19" stop-color="#50cfed"/>
      <stop offset=".58" stop-color="#3ee4c1"/>
      <stop offset="1" stop-color="#27fe89"/>
    </radialGradient>
    <radialGradient id="radial-gradient-2" cx="240.33" cy="377.37" fx="240.33" fy="377.37" r="403.11" gradientUnits="userSpaceOnUse">
      <stop offset="0" stop-color="#58c8ff"/>
      <stop offset=".19" stop-color="#50cfed"/>
      <stop offset=".58" stop-color="#3ee4c1"/>
      <stop offset="1" stop-color="#27fe89"/>
    </radialGradient>
    <linearGradient id="linear-gradient" x1="188.58" y1="297.74" x2="389.29" y2="97.04" gradientUnits="userSpaceOnUse">
      <stop offset="0" stop-color="#58c8ff"/>
      <stop offset=".19" stop-color="#50cfed"/>
      <stop offset=".58" stop-color="#3ee4c1"/>
      <stop offset="1" stop-color="#27fe89"/>
    </linearGradient>
  </defs>
  <path class="cls-4" d="M299.32,82.46l-31.34,27.19c-4.78,4.14-12.22.75-12.22-5.58v-11.02h-5.76c-86.54,0-156.95,70.41-156.95,156.95,0,47.07,20.74,90.82,56.31,120.47,6.28,5.23,7.72,14.29,3.32,21.17-3.11,4.86-8.34,7.45-13.63,7.45-3.63,0-7.3-1.22-10.35-3.75-42.94-35.77-67.98-88.55-67.98-145.34,0-50.56,19.69-98.09,55.44-133.84,35.75-35.75,83.28-55.44,133.84-55.44h5.76v-11.02c0-6.33,7.44-9.72,12.22-5.58l31.34,27.19c3.39,2.94,3.39,8.21,0,11.15Z"/>
  <path class="cls-3" d="M347.32,108.36c3.11-4.86,8.34-7.45,13.63-7.45,3.63,0,7.3,1.22,10.35,3.75,9.32,7.76,17.8,16.33,25.36,25.56l-23.01,23.01c-6.76-8.62-14.46-16.56-23.01-23.7-6.28-5.23-7.72-14.29-3.32-21.17Z"/>
  <path class="cls-2" d="M439.28,250c0,50.56-19.69,98.09-55.44,133.84-35.75,35.75-83.28,55.44-133.84,55.44h-5.76v11.02c0,6.33-7.44,9.72-12.22,5.58l-31.34-27.19c-3.39-2.94-3.39-8.21,0-11.15l31.34-27.19c4.78-4.14,12.22-.75,12.22,5.58v11.02h5.76c86.54,0,156.95-70.41,156.95-156.95,0-14.67-2.01-29.02-5.86-42.71l25.55-25.55c8.25,21.42,12.64,44.49,12.64,68.26Z"/>
  <path class="cls-1" d="M429.96,137.71c6.75,6.75,6.75,17.7,0,24.45l-176.28,176.23c-3.38,3.38-7.8,5.06-12.22,5.06s-8.85-1.69-12.22-5.06l-81.32-81.32c-6.75-6.75-6.75-17.7,0-24.45,6.75-6.75,17.7-6.75,24.45,0l69.1,69.1,164.05-164.01c6.75-6.75,17.7-6.75,24.45,0h0Z"/>
</svg>