<?xml version="1.0" encoding="utf-8"?>
<!-- Generator: Adobe Illustrator 28.2.0, SVG Export Plug-In . SVG Version: 6.00 Build 0)  -->
<svg version="1.1" id="Objects" xmlns="http://www.w3.org/2000/svg" xmlns:xlink="http://www.w3.org/1999/xlink" x="0px" y="0px"
	 viewBox="0 0 948 1062" style="enable-background:new 0 0 948 1062;" xml:space="preserve">
<style type="text/css">
	.st0{fill:#FFFFFF;stroke:#FFFFFF;stroke-width:10;stroke-miterlimit:10;}
	
		.st1{clip-path:url(#SVGID_00000147186714635849007380000013576720842312786333_);fill:url(#SVGID_00000021097890362211433350000015481474318634185606_);}
	
		.st2{clip-path:url(#SVGID_00000050661961074970147610000003825861554289320098_);fill:url(#SVGID_00000035505277825131460960000010393348212665877163_);}
	
		.st3{clip-path:url(#SVGID_00000102546171989195219100000001639690147183550643_);fill:url(#SVGID_00000039837011411560098520000007767078864632806290_);}
	
		.st4{clip-path:url(#SVGID_00000136373717604616148410000006908982909250726297_);fill:url(#SVGID_00000011024679891930793670000008491541741833368749_);}
	
		.st5{clip-path:url(#SVGID_00000078726177126908893140000003147477015619649209_);fill:url(#SVGID_00000018943179824818806420000011682221703000528027_);}
</style>
<g>
	<path class="st0" d="M823.2,123.6H656.8l-2.7-44.9c-1.8-29.6-21.9-52.5-46.1-52.5H340c-24.2,0-44.3,22.9-46.1,52.5l-2.7,44.9H124.8
		c-21.8,0-39.6,21.7-39.6,48.5l0,0c0,26.8,17.7,48.5,39.6,48.5h698.4c21.8,0,39.6-21.7,39.6-48.5l0,0
		C862.7,145.3,845,123.6,823.2,123.6L823.2,123.6z M325.4,123.6l2.5-41.8c0.5-7.7,5.8-13.8,12.1-13.8H608c6.3,0,11.7,6.1,12.1,13.8
		l2.5,41.8H325.4L325.4,123.6z"/>
	<path class="st0" d="M172.3,948.2c2.9,49.3,36.5,87.5,76.8,87.5h449.8c40.3,0,73.8-38.2,76.8-87.5L817,257.6H131L172.3,948.2z
		 M741.7,945.2c-0.8,13.3-5.6,25.6-13.6,34.7c-8,9.1-18.4,14.1-29.3,14.1H249.1c-10.9,0-21.3-5-29.3-14.1s-12.8-21.4-13.6-34.7
		l-38.6-645.9h612.7L741.7,945.2z"/>
	<path class="st0" d="M474,875.4c9.4,0,17-9.3,17-20.8V421.3c0-11.5-7.6-20.8-17-20.8c-9.4,0-17,9.3-17,20.8v433.2
		C457,866,464.6,875.4,474,875.4z"/>
	<path class="st0" d="M315.1,855.8c0.6,11,8.1,19.5,17,19.5c0.4,0,0.7,0,1.1,0c9.4-0.7,16.5-10.6,15.9-22.1L326.6,420
		c-0.6-11.5-8.7-20.2-18.1-19.5c-9.4,0.7-16.5,10.6-15.9,22.1L315.1,855.8L315.1,855.8z"/>
	<path class="st0" d="M614.8,875.3c0.4,0,0.7,0,1.1,0c8.9,0,16.4-8.5,17-19.5l22.5-433.2c0.6-11.5-6.5-21.4-15.9-22.1
		c-9.4-0.7-17.5,8-18.1,19.5l-22.5,433.2C598.3,864.7,605.4,874.6,614.8,875.3L614.8,875.3z"/>
</g>
<g>
	<defs>
		<path id="SVGID_1_" d="M-388.1,123.6h-179.8l-2.9-44.9c-1.9-29.6-23.6-52.5-49.7-52.5h-289.5c-26.1,0-47.8,22.9-49.7,52.5
			l-2.9,44.9h-179.8c-23.6,0-42.7,21.7-42.7,48.5l0,0c0,26.8,19.1,48.5,42.7,48.5h754.3c23.6,0,42.7-21.7,42.7-48.5l0,0
			C-345.4,145.3-364.6,123.6-388.1,123.6L-388.1,123.6z M-925.9,123.6l2.7-41.8c0.5-7.7,6.2-13.8,13.1-13.8h289.5
			c6.8,0,12.6,6.1,13.1,13.8l2.7,41.8H-925.9L-925.9,123.6z"/>
	</defs>
	<clipPath id="SVGID_00000067931074485892334130000001993053635407806380_">
		<use xlink:href="#SVGID_1_"  style="overflow:visible;"/>
	</clipPath>
	
		<linearGradient id="SVGID_00000118367705338552681640000003738727065394883216_" gradientUnits="userSpaceOnUse" x1="-1222.0747" y1="-13.8092" x2="-307.7763" y2="1075.8092">
		<stop  offset="0" style="stop-color:#58C8FF"/>
		<stop  offset="0.1168" style="stop-color:#52CEF2"/>
		<stop  offset="0.5033" style="stop-color:#42E0CA"/>
		<stop  offset="0.8112" style="stop-color:#38EBB2"/>
		<stop  offset="1" style="stop-color:#34EFA9"/>
	</linearGradient>
	
		<rect x="-1238.5" style="clip-path:url(#SVGID_00000067931074485892334130000001993053635407806380_);fill:url(#SVGID_00000118367705338552681640000003738727065394883216_);" width="947.2" height="1062"/>
</g>
<g>
	<defs>
		<path id="SVGID_00000049908769324482602770000008485799594683792788_" d="M-1091.2,948.2c3.2,49.3,39.4,87.5,82.9,87.5h485.8
			c43.6,0,79.8-38.2,82.9-87.5l44.6-690.6h-740.9L-1091.2,948.2z M-476.1,945.2c-0.9,13.3-6.1,25.6-14.7,34.7
			c-8.6,9.1-19.8,14.1-31.6,14.1h-485.8c-11.8,0-23-5-31.6-14.1s-13.8-21.4-14.7-34.7l-41.7-645.9h661.8L-476.1,945.2z"/>
	</defs>
	<clipPath id="SVGID_00000011734085423019405400000005553885434757840547_">
		<use xlink:href="#SVGID_00000049908769324482602770000008485799594683792788_"  style="overflow:visible;"/>
	</clipPath>
	
		<linearGradient id="SVGID_00000014603116169536666340000003642478526785788568_" gradientUnits="userSpaceOnUse" x1="-1222.0747" y1="-13.8092" x2="-307.7763" y2="1075.8092">
		<stop  offset="0" style="stop-color:#58C8FF"/>
		<stop  offset="0.1168" style="stop-color:#52CEF2"/>
		<stop  offset="0.5033" style="stop-color:#42E0CA"/>
		<stop  offset="0.8112" style="stop-color:#38EBB2"/>
		<stop  offset="1" style="stop-color:#34EFA9"/>
	</linearGradient>
	
		<rect x="-1238.5" style="clip-path:url(#SVGID_00000011734085423019405400000005553885434757840547_);fill:url(#SVGID_00000014603116169536666340000003642478526785788568_);" width="947.2" height="1062"/>
</g>
<g>
	<defs>
		<path id="SVGID_00000151521807498536289540000005111546593734003127_" d="M-765.3,875.4c10.2,0,18.4-9.3,18.4-20.8V421.3
			c0-11.5-8.2-20.8-18.4-20.8s-18.4,9.3-18.4,20.8v433.2C-783.7,866-775.5,875.4-765.3,875.4z"/>
	</defs>
	<clipPath id="SVGID_00000147217070036236171570000005365717329753647009_">
		<use xlink:href="#SVGID_00000151521807498536289540000005111546593734003127_"  style="overflow:visible;"/>
	</clipPath>
	
		<linearGradient id="SVGID_00000108301195228000353990000004371440086662647191_" gradientUnits="userSpaceOnUse" x1="-1222.0747" y1="-13.8092" x2="-307.7763" y2="1075.8092">
		<stop  offset="0" style="stop-color:#58C8FF"/>
		<stop  offset="0.1168" style="stop-color:#52CEF2"/>
		<stop  offset="0.5033" style="stop-color:#42E0CA"/>
		<stop  offset="0.8112" style="stop-color:#38EBB2"/>
		<stop  offset="1" style="stop-color:#34EFA9"/>
	</linearGradient>
	
		<rect x="-1238.5" style="clip-path:url(#SVGID_00000147217070036236171570000005365717329753647009_);fill:url(#SVGID_00000108301195228000353990000004371440086662647191_);" width="947.2" height="1062"/>
</g>
<g>
	<defs>
		<path id="SVGID_00000096059536561064759360000014333742372389791107_" d="M-936.9,855.8c0.6,11,8.7,19.5,18.3,19.5
			c0.4,0,0.8,0,1.2,0c10.1-0.7,17.8-10.6,17.2-22.1l-24.3-433.2c-0.6-11.5-9.4-20.2-19.5-19.5c-10.1,0.7-17.8,10.6-17.2,22.1
			L-936.9,855.8L-936.9,855.8z"/>
	</defs>
	<clipPath id="SVGID_00000096781958769805887550000003355969176632819849_">
		<use xlink:href="#SVGID_00000096059536561064759360000014333742372389791107_"  style="overflow:visible;"/>
	</clipPath>
	
		<linearGradient id="SVGID_00000155833888492579504010000017207365175751176867_" gradientUnits="userSpaceOnUse" x1="-1222.8619" y1="-13.8092" x2="-308.5636" y2="1075.8092">
		<stop  offset="0" style="stop-color:#58C8FF"/>
		<stop  offset="0.1168" style="stop-color:#52CEF2"/>
		<stop  offset="0.5033" style="stop-color:#42E0CA"/>
		<stop  offset="0.8112" style="stop-color:#38EBB2"/>
		<stop  offset="1" style="stop-color:#34EFA9"/>
	</linearGradient>
	
		<rect x="-1239.3" style="clip-path:url(#SVGID_00000096781958769805887550000003355969176632819849_);fill:url(#SVGID_00000155833888492579504010000017207365175751176867_);" width="947.2" height="1062"/>
</g>
<g>
	<defs>
		<path id="SVGID_00000091722561785472684620000016216345943375688576_" d="M-613.2,875.3c0.4,0,0.8,0,1.2,0
			c9.6,0,17.7-8.5,18.3-19.5l24.3-433.2c0.6-11.5-7-21.4-17.2-22.1c-10.1-0.7-18.9,8-19.5,19.5l-24.3,433.2
			C-631,864.7-623.4,874.6-613.2,875.3L-613.2,875.3z"/>
	</defs>
	<clipPath id="SVGID_00000071541222383956588570000006803115758696330905_">
		<use xlink:href="#SVGID_00000091722561785472684620000016216345943375688576_"  style="overflow:visible;"/>
	</clipPath>
	
		<linearGradient id="SVGID_00000086674413381219463980000010966777009812668842_" gradientUnits="userSpaceOnUse" x1="-1222.0747" y1="-13.8092" x2="-307.7763" y2="1075.8092">
		<stop  offset="0" style="stop-color:#58C8FF"/>
		<stop  offset="0.1168" style="stop-color:#52CEF2"/>
		<stop  offset="0.5033" style="stop-color:#42E0CA"/>
		<stop  offset="0.8112" style="stop-color:#38EBB2"/>
		<stop  offset="1" style="stop-color:#34EFA9"/>
	</linearGradient>
	
		<rect x="-1238.5" style="clip-path:url(#SVGID_00000071541222383956588570000006803115758696330905_);fill:url(#SVGID_00000086674413381219463980000010966777009812668842_);" width="947.2" height="1062"/>
</g>
<image style="overflow:visible;" width="260" height="84" xlink:href="20DBD7E2.jpg"  transform="matrix(1 0 0 1 -321.4681 512.1277)">
</image>
</svg>
